<svg xmlns="http://www.w3.org/2000/svg" fill="none" viewBox="0 0 216 200">
  <path fill="#fff" d="M196.558 41.898c-.79-15.08-14.162-14.237-20.848-18.83-6.687-4.594-5.944-15.705-22.617-17.429-29.794 4.376-33.208-1.143-46.587-.442-9.64.505-14.707 4.76-26.225 1.997-14.56.763-17.487 14.665-26.039 19.621-8.551 4.956-37.091 12.558-35.89 35.47.934 17.839-14.417 23.584-13.603 39.103.524 10.008 8.793 12.19 9.287 21.616.38 7.249-3.48 11.38-2.941 21.676.54 10.296 7.927 15.726 21.014 14.457 11.774-1.139 15.208 3.122 19.58 12.208 7.233 15.036 19.786 23.683 35.263 22.872 12.592-.66 22.525-6.851 28.953-7.188 6.429-.337 5.241 7.142 14.293 6.667 12.854-.673 18.526-12.894 32.176-21.026 13.647-8.131 31.244-6.145 42.468-30.435 3.753-8.119-1.173-17.389-.421-23.099.753-5.71 6.892-11.559 6.231-24.174-.821-15.662-14.921-21.177-17.785-28.15-2.866-6.976 4.307-13.166 3.691-24.914Z"/>
  <path fill="#003021" d="M14.888 65.257h25.428c1.855-6.913-3.71-8.87-6.847-4.182 1.35-8.06-5.395-8.196-10.489-.067-.2-3.947-5.36-2.092-8.092 4.25ZM34.405 45.648h18.94c1.38-5.15-2.764-6.607-5.1-3.114 1.005-6.002-4.019-6.103-7.811-.05-.152-2.94-3.995-1.559-6.029 3.163ZM82.439 12.588h3.952c2.843 0 4.674 1.461 4.674 3.95v.032c0 2.65-2.04 4.048-4.834 4.048h-.676v3.212h-3.117V12.588Zm3.727 5.59c1.11 0 1.783-.577 1.783-1.462v-.032c0-.964-.674-1.477-1.799-1.477h-.596v2.971h.612ZM91.242 19.528v-.032c0-2.539 1.814-4.546 4.385-4.546 3.004 0 4.385 2.2 4.385 4.754 0 .193 0 .417-.016.626h-5.815c.24.948.933 1.43 1.879 1.43.721 0 1.301-.273 1.927-.885l1.686 1.397c-.837 1.061-2.04 1.767-3.774 1.767-2.728.002-4.657-1.812-4.657-4.511Zm5.91-.756c-.112-.965-.673-1.574-1.51-1.574-.803 0-1.349.625-1.509 1.574h3.02ZM101.361 21.134V17.6h-1.028v-2.459h1.028v-2.199h3.052v2.2h2.023V17.6h-2.023v2.94c0 .609.273.868.834.868.401 0 .788-.112 1.157-.288v2.389c-.545.304-1.269.497-2.119.497-1.831.002-2.924-.802-2.924-2.873Z"/>
  <path fill="#68B845" d="M108.184 12.588h4.449c1.718 0 2.908.449 3.661 1.22.658.642.997 1.51.997 2.62v.032c0 1.718-.917 2.86-2.314 3.453l2.683 3.917h-3.597l-2.264-3.404h-.499v3.404h-3.116V12.588Zm4.305 5.398c1.061 0 1.67-.513 1.67-1.334v-.032c0-.884-.641-1.333-1.686-1.333H111.3v2.699h1.189Z"/>
  <path fill="#68B845" d="M117.863 23.937h-3.856l-2.264-3.404h-.337v3.404h-3.327V12.483h4.557c1.667 0 2.923.423 3.738 1.254.682.662 1.027 1.569 1.027 2.69v.033c0 1.62-.781 2.827-2.259 3.498l2.721 3.98Zm-3.741-.21h3.34l-2.643-3.86.12-.05c1.47-.626 2.248-1.786 2.248-3.357v-.032c0-1.064-.324-1.919-.965-2.542-.775-.79-1.98-1.189-3.589-1.189h-4.345V23.73h2.905v-3.405h.66l2.269 3.402Zm-1.633-5.637h-1.296v-2.91h1.28c1.138 0 1.793.524 1.793 1.44v.032c0 .888-.682 1.438-1.777 1.438Zm-1.083-.211h1.083c.981 0 1.566-.46 1.566-1.227v-.032c0-1.069-.992-1.226-1.582-1.226h-1.067v2.485ZM117.785 19.528v-.032c0-2.539 1.815-4.546 4.385-4.546 3.004 0 4.386 2.2 4.386 4.754 0 .193 0 .417-.016.625h-5.815c.24.95.932 1.43 1.878 1.43.722 0 1.302-.272 1.927-.884l1.686 1.397c-.836 1.061-2.039 1.767-3.773 1.767-2.728.002-4.658-1.812-4.658-4.511Zm5.911-.756c-.112-.965-.673-1.574-1.509-1.574-.802 0-1.35.625-1.51 1.573h3.019Z"/>
  <path fill="#68B845" d="M122.443 24.146c-2.806 0-4.765-1.9-4.765-4.618v-.032c0-2.651 1.929-4.653 4.492-4.653 2.729 0 4.49 1.908 4.49 4.861 0 .198 0 .422-.016.633l-.008.1h-5.773c.249.785.864 1.218 1.74 1.218.684 0 1.24-.254 1.855-.853l.067-.066 1.838 1.523-.064.08c-.943 1.2-2.239 1.807-3.856 1.807Zm-.273-9.092c-2.44 0-4.278 1.908-4.278 4.439v.032c0 2.595 1.87 4.407 4.551 4.407 1.51 0 2.728-.553 3.626-1.646l-1.534-1.27c-.63.594-1.213.847-1.932.847-1.031 0-1.734-.537-1.983-1.51l-.034-.13h5.849c.011-.177.011-.358.011-.522.005-3.425-2.207-4.647-4.276-4.647Zm1.646 3.824h-3.263l.022-.123c.176-1.04.78-1.662 1.614-1.662.876 0 1.494.639 1.614 1.668l.013.117Zm-3.011-.21h2.768c-.136-.856-.649-1.364-1.387-1.364-.689 0-1.2.505-1.381 1.363ZM127.141 22.74l1.141-1.847c.997.658 2.087.997 2.988.997.529 0 .77-.16.77-.465v-.032c0-.337-.481-.481-1.398-.738-1.718-.449-3.084-1.028-3.084-2.779v-.032c0-1.847 1.478-2.875 3.485-2.875 1.269 0 2.587.368 3.581 1.013l-1.045 1.926c-.901-.497-1.879-.804-2.571-.804-.465 0-.705.176-.705.417v.032c0 .337.497.497 1.413.77 1.719.48 3.084 1.076 3.084 2.763v.032c0 1.91-1.43 2.907-3.549 2.907-1.459 0-2.905-.42-4.11-1.285Z"/>
  <path fill="#68B845" d="M131.254 24.13c-1.545 0-2.988-.452-4.174-1.305l-.08-.058 1.25-2.023.091.061c.941.623 2.007.978 2.929.978.665 0 .665-.262.665-.36v-.033c0-.253-.451-.393-1.32-.636-1.598-.42-3.161-.986-3.161-2.88v-.033c0-1.811 1.408-2.982 3.591-2.982 1.299 0 2.627.374 3.64 1.029l.083.053-1.141 2.109-.094-.05c-.879-.487-1.843-.792-2.517-.792-.371 0-.601.12-.601.313v.032c0 .259.483.414 1.336.668 1.598.449 3.159 1.04 3.159 2.865v.032c0 1.886-1.366 3.012-3.656 3.012Zm-3.969-1.42c1.134.791 2.504 1.208 3.969 1.208 2.157 0 3.445-1.047 3.445-2.8v-.032c0-1.52-1.104-2.127-3.007-2.662-.898-.267-1.491-.444-1.491-.874v-.032c0-.254.214-.524.812-.524.685 0 1.644.292 2.528.765l.946-1.748c-.97-.601-2.215-.943-3.442-.943-2.052 0-3.38 1.087-3.38 2.768v.032c0 1.582 1.101 2.178 3.004 2.675.922.26 1.475.414 1.475.842v.032c0 .38-.294.572-.877.572-.932 0-2.001-.348-2.955-.954l-1.027 1.675ZM135.548 19.528v-.032c0-2.459 1.911-4.53 4.658-4.53 1.783 0 2.972.772 3.71 1.943l-2.072 1.542c-.416-.578-.884-.917-1.622-.917-.98 0-1.702.869-1.702 1.927v.032c0 1.125.706 1.975 1.734 1.975.725 0 1.19-.337 1.671-.9l2.039 1.477c-.805 1.19-1.959 1.991-3.87 1.991-2.619.005-4.546-2.052-4.546-4.508Z"/>
  <path fill="#68B845" d="M140.094 24.145c-2.608 0-4.653-2.028-4.653-4.617v-.032c0-2.643 2.047-4.637 4.765-4.637 1.689 0 2.967.67 3.8 1.994l.054.082-2.237 1.665-.064-.088c-.446-.62-.893-.871-1.537-.871-.895 0-1.598.799-1.598 1.823v.032c0 1.082.684 1.87 1.628 1.87.705 0 1.146-.345 1.59-.863l.064-.075 2.202 1.596-.059.085c-.938 1.39-2.197 2.036-3.955 2.036Zm.112-9.075c-2.595 0-4.551 1.903-4.551 4.423v.032c0 2.472 1.951 4.407 4.439 4.407 1.649 0 2.835-.59 3.725-1.86l-1.878-1.36c-.404.457-.896.863-1.687.863-1.066 0-1.841-.877-1.841-2.082v-.032c0-1.141.794-2.034 1.809-2.034.679 0 1.176.262 1.644.874l1.908-1.419c-.794-1.203-1.994-1.812-3.568-1.812ZM144.811 20.83v-5.687h3.052v4.706c0 .948.497 1.461 1.237 1.461.724 0 1.269-.513 1.269-1.461v-4.707h3.052v8.688h-3.052v-1.189c-.561.724-1.365 1.382-2.603 1.382-1.846.003-2.955-1.219-2.955-3.194Z"/>
  <path fill="#68B845" d="M147.766 24.13c-1.889 0-3.062-1.264-3.062-3.303v-5.791h3.263v4.813c0 .85.422 1.354 1.13 1.354.716 0 1.163-.518 1.163-1.354v-4.813h3.263v8.901h-3.263v-1c-.7.802-1.521 1.193-2.494 1.193Zm-2.851-8.88v5.58c0 1.934 1.066 3.089 2.849 3.089.994 0 1.817-.439 2.517-1.342l.19-.243v1.392h2.841V15.25h-2.841v4.6c0 .95-.54 1.568-1.374 1.568-.828 0-1.341-.601-1.341-1.569V15.25h-2.841ZM154.346 19.528v-.032c0-2.539 1.814-4.546 4.385-4.546 3.004 0 4.385 2.2 4.385 4.754 0 .193 0 .417-.016.625h-5.815c.241.95.933 1.43 1.879 1.43.722 0 1.301-.272 1.927-.884l1.686 1.397c-.836 1.061-2.042 1.767-3.776 1.767-2.729.002-4.655-1.812-4.655-4.511Zm5.911-.756c-.112-.965-.676-1.574-1.51-1.574-.804 0-1.349.625-1.51 1.573h3.02Z"/>
  <path fill="#68B845" d="M159.004 24.146c-2.806 0-4.765-1.9-4.765-4.618v-.032c0-2.651 1.929-4.653 4.49-4.653 2.728 0 4.492 1.908 4.492 4.861 0 .198 0 .422-.016.633l-.008.1h-5.773c.249.785.864 1.218 1.74 1.218.684 0 1.24-.254 1.855-.853l.067-.066 1.838 1.523-.064.08c-.943 1.2-2.242 1.807-3.856 1.807Zm-.273-9.092c-2.44 0-4.278 1.908-4.278 4.439v.032c0 2.595 1.87 4.407 4.551 4.407 1.51 0 2.728-.553 3.626-1.646l-1.534-1.27c-.63.594-1.213.847-1.932.847-1.031 0-1.734-.537-1.983-1.51l-.034-.13h5.849c.011-.177.011-.358.011-.522.003-3.425-2.207-4.647-4.276-4.647Zm1.644 3.824h-3.263l.021-.123c.177-1.04.781-1.662 1.614-1.662.877 0 1.494.639 1.614 1.668l.014.117Zm-3.009-.21h2.768c-.139-.856-.649-1.364-1.389-1.364-.687 0-1.198.505-1.379 1.363Z"/>
  <path fill="#68B845" stroke="#68B445" stroke-width="1.84" d="M76.247 17.153a9.508 9.508 0 0 1-2.026 7.045 9.514 9.514 0 0 1-6.413 3.55 9.508 9.508 0 0 1-7.044-2.026 9.525 9.525 0 0 1-3.55-6.413 9.508 9.508 0 0 1 2.025-7.045 9.52 9.52 0 0 1 6.414-3.55 9.508 9.508 0 0 1 7.044 2.026 9.498 9.498 0 0 1 3.55 6.413Z"/>
  <path fill="#fff" d="M65.525 7.587c-5.878.666-10.101 5.968-9.436 11.846.666 5.878 5.968 10.102 11.846 9.436 5.878-.666 10.101-5.97 9.436-11.846-.666-5.875-5.968-10.101-11.846-9.436Zm2.283 20.16a9.508 9.508 0 0 1-7.045-2.025 9.525 9.525 0 0 1-3.55-6.413 9.508 9.508 0 0 1 2.026-7.045 9.52 9.52 0 0 1 6.413-3.55 9.508 9.508 0 0 1 7.045 2.026 9.515 9.515 0 0 1 3.55 6.413 9.508 9.508 0 0 1-2.026 7.045 9.515 9.515 0 0 1-6.413 3.55Z"/>
  <path fill="#fff" d="M71.087 21.502c.556 1.273.018 1.747-2.548 2.572l-.045.013c-2.601.703-3.312.596-3.537-.774-.12-.708-.93-1.594-1.498-2.286a9.364 9.364 0 0 1-.347-.45 3.7 3.7 0 0 1-.13-.202h-.006a3.513 3.513 0 0 1-.503-1.317c.538-1.514 1-4.52.453-5.115.705-.575 2.739-1.673 3.64-1.784-.21.13-.326.292-.289.488.194.994 1.329 2.155 1.92 2.964.753 1.026-.446 1.235-.077 2.479.366 1.24 1.689 1.06 2.977.681-.095.888-.297 2.07-.01 2.731Z"/>
  <path fill="#003021" fill-rule="evenodd" d="M62.431 19.253c-.124.352-.257.623-.379.764-.114-.17-.228-.4-.408-.502-.05.292-.104.584-.157.875-.888-.835-3.507-2.054-2.749-3.778.337-.771 1.04-1.341 1.678-1.84.851-.668 1.294-.888 2.294-.734a.29.29 0 0 1 .175.1c.546.592.087 3.601-.454 5.115ZM71.662 16.854c-.206-.096-.33-.557-.456-.727.04.716.117 1.445.292 2.142-.127-.04-.254-.077-.382-.116.003.077-.058.811-.058.811-1.291.382-2.611.562-2.977-.681-.369-1.244.83-1.453.077-2.48-.592-.808-1.724-1.97-1.92-2.963-.04-.197.08-.358.29-.488.638-.406 1.977-.475 2.825-.478.846 0 2.63.08 3.253 1.053.409.65-.562 4.11-.944 3.927ZM63.611 19.924c.504.72 1.657.37 1.755-.533-.604-.88-1.773-.353-1.755.533Zm1.215-.44a.175.175 0 0 1-.202-.146.18.18 0 0 1 .146-.207.18.18 0 0 1 .207.148c.016.096-.053.186-.151.205ZM66.938 23.023c.668 1.365 2.323.838 2.158-.602-.13-1.119-2.643-.4-2.158.602Zm1.832-.76a.18.18 0 0 1-.167.187.18.18 0 0 1-.021-.358.182.182 0 0 1 .188.17Z" clip-rule="evenodd"/>
  <path fill="#fff" d="M70.225 24.126c.038.122-.402.886-1.434 1.19l-.013.003c-1.029.305-1.814-.1-1.85-.22a.126.126 0 0 1 .084-.162c.112-.032.761.098 1.612-.154.851-.251 1.326-.713 1.437-.747a.13.13 0 0 1 .164.09Z"/>
  <path fill="#003021" d="m45.297 16.647.901.788c.18.158.404.254.642.276l1.191.107c.487.042.89.395.997.87l.265 1.169c.053.232.179.44.358.598l.9.789c.37.32.487.841.294 1.29l-.47 1.101c-.093.22-.115.463-.064.695l.264 1.168c.11.476-.101.967-.52 1.218l-1.03.615a1.138 1.138 0 0 0-.46.524l-.47 1.1a1.126 1.126 0 0 1-1.138.68l-1.192-.107a1.117 1.117 0 0 0-.679.155l-1.029.614c-.419.252-.95.203-1.32-.12l-.9-.788a1.122 1.122 0 0 0-.642-.275l-1.191-.107a1.123 1.123 0 0 1-.997-.872l-.265-1.167a1.136 1.136 0 0 0-.358-.599l-.9-.788a1.122 1.122 0 0 1-.294-1.291l.47-1.101c.093-.22.115-.462.064-.695l-.264-1.168c-.11-.475.101-.967.52-1.218l1.03-.615c.203-.123.366-.305.46-.524l.47-1.1a1.126 1.126 0 0 1 1.138-.68l1.192.107c.238.022.475-.032.678-.155l1.03-.614c.419-.249.95-.2 1.32.12Z"/>
  <path fill="#68B845" d="M44.02 27.157a3.747 3.747 0 1 0 0-7.493 3.747 3.747 0 0 0 0 7.493ZM21.513 135.714c.348 1.473-.756 2.531-2.336 2.905-1.579.374-3.049-.104-3.39-1.55-.343-1.446.756-2.531 2.335-2.905 1.58-.374 3.044.078 3.391 1.55Zm-4.27-5.275c-.626.147-1.008.791-.853 1.44.155.65.783 1.053 1.409.906.625-.147 1.007-.791.852-1.44-.155-.647-.786-1.053-1.408-.906Zm3.688.219c-.636-.077-1.219.396-1.3 1.056-.08.66.372 1.258 1.008 1.336.636.077 1.219-.396 1.3-1.056.08-.66-.37-1.258-1.008-1.336Zm-7.192 3.276c.37.554 1.099.717 1.633.361.535-.355.67-1.09.302-1.646-.369-.553-1.098-.716-1.633-.361-.534.356-.668 1.09-.302 1.646ZM48.036 167.847c-.43 1.451-1.913 1.82-3.471 1.36-1.558-.462-2.595-1.606-2.173-3.03.423-1.425 1.914-1.82 3.472-1.361 1.558.463 2.603 1.582 2.172 3.031Zm-1.087-6.697c-.615-.182-1.267.187-1.457.826-.19.638.158 1.301.773 1.483.614.181 1.266-.187 1.456-.826.19-.639-.155-1.301-.772-1.483Zm3.094 2.023c-.513-.385-1.253-.262-1.651.27-.398.531-.305 1.277.211 1.659.513.385 1.253.262 1.651-.27.396-.534.303-1.277-.21-1.659Zm-7.87-.73c.043.663.599 1.168 1.238 1.125.638-.042 1.122-.614 1.08-1.277-.044-.663-.6-1.168-1.238-1.125-.639.04-1.123.612-1.08 1.277ZM184.055 33.694c-.535 1.416-2.039 1.678-3.56 1.104-1.521-.572-2.469-1.79-1.945-3.18.523-1.39 2.039-1.679 3.559-1.104 1.521.574 2.48 1.766 1.946 3.18Zm-.596-6.761c-.602-.227-1.278.096-1.513.716-.235.623.062 1.31.663 1.537.601.227 1.277-.096 1.512-.716.233-.62-.064-1.31-.662-1.537Zm2.937 2.245c-.484-.42-1.232-.353-1.668.15-.436.502-.395 1.25.088 1.67.484.42 1.232.352 1.668-.15.435-.502.395-1.25-.088-1.67Zm-7.796-1.302c-.005.666.511 1.208 1.152 1.213.641.006 1.165-.531 1.171-1.197.005-.665-.511-1.208-1.152-1.213-.642-.003-1.165.532-1.171 1.197ZM207.315 130.589c-.535 1.416-2.039 1.678-3.56 1.103-1.52-.572-2.469-1.79-1.945-3.18.524-1.389 2.039-1.678 3.559-1.104 1.521.575 2.48 1.767 1.946 3.181Zm-.596-6.759c-.601-.227-1.277.096-1.513.716-.235.62.062 1.31.663 1.537.601.227 1.278-.096 1.513-.716.235-.62-.064-1.312-.663-1.537Zm2.937 2.242c-.484-.419-1.232-.352-1.668.15-.435.502-.395 1.251.089 1.67.483.42 1.231.353 1.667-.15.436-.502.396-1.25-.088-1.67Zm-7.795-1.301c-.006.665.51 1.208 1.151 1.213.642.005 1.166-.532 1.171-1.197.005-.666-.511-1.208-1.152-1.213-.641-.003-1.165.531-1.17 1.197ZM178.202 173.074c.289 1.483-.855 2.499-2.45 2.809-1.596.309-3.042-.228-3.328-1.684-.283-1.457.856-2.499 2.451-2.809 1.595-.31 3.036.201 3.327 1.684Zm-4.059-5.438c-.631.123-1.037.751-.909 1.403.128.652.74 1.082 1.371.959.631-.123 1.037-.751.909-1.403-.129-.652-.741-1.082-1.371-.959Zm3.677.366c-.633-.102-1.232.344-1.339 1.002-.107.657.321 1.272.954 1.376.634.102 1.232-.345 1.339-1.002.107-.66-.321-1.275-.954-1.376Zm-7.314 2.985c.344.569 1.069.759 1.616.427.548-.334.714-1.063.369-1.633-.344-.569-1.069-.758-1.616-.427-.551.334-.717 1.064-.369 1.633ZM104.178 183.467c-1.064-.129-1.812 1.689-1.812 1.689s-.296-1.94-1.363-2.066c-.847-.102-1.208.478-1.312 1.355-.13 1.09.706 2.595 2.245 4.316 1.9-1.31 3.068-2.574 3.196-3.664.107-.882-.107-1.529-.954-1.63ZM88.379 179.466c-1.058.177-1.264 2.127-1.264 2.127s-.831-1.777-1.887-1.6c-.841.141-1.026.796-.879 1.67.182 1.082 1.406 2.293 3.365 3.511 1.456-1.79 2.22-3.332 2.041-4.414-.147-.874-.532-1.435-1.376-1.294ZM48.766 174.8c-1.058.177-1.264 2.127-1.264 2.127s-.83-1.777-1.886-1.6c-.842.141-1.026.796-.88 1.67.182 1.082 1.406 2.293 3.365 3.511 1.456-1.79 2.22-3.332 2.042-4.414-.15-.874-.535-1.435-1.377-1.294ZM14.637 117.924c-1.037.273-1.063 2.234-1.063 2.234s-.989-1.694-2.026-1.421c-.826.216-.949.887-.721 1.742.28 1.061 1.608 2.154 3.671 3.188 1.289-1.916 1.906-3.522 1.628-4.583-.227-.852-.663-1.376-1.489-1.16ZM32.922 31.802c-1.069.24-1.176 2.202-1.176 2.202s-.938-1.726-2.007-1.486c-.852.193-1.002.858-.81 1.721.241 1.072 1.55 2.208 3.61 3.306 1.393-1.876 2.09-3.464 1.85-4.535-.192-.86-.614-1.4-1.467-1.208ZM198.747 37.12c-1.053-.297-2.082 1.379-2.082 1.379s-.005-1.967-1.061-2.26c-.839-.236-1.29.28-1.528 1.13-.297 1.058.318 2.677 1.609 4.623 2.113-.992 3.482-2.055 3.778-3.113.241-.85.126-1.524-.716-1.759ZM204.402 69.824c-1.055-.288-2.071 1.395-2.071 1.395s-.021-1.964-1.077-2.252c-.842-.23-1.288.288-1.52 1.143-.289 1.059.336 2.675 1.643 4.613 2.109-1.008 3.466-2.082 3.755-3.14.235-.858.112-1.529-.73-1.759ZM163.774 175.829c-1.076-.198-1.945 1.563-1.945 1.563s-.187-1.956-1.261-2.154c-.858-.157-1.259.396-1.419 1.267-.198 1.08.561 2.638 2.025 4.458 2.015-1.179 3.279-2.365 3.48-3.445.157-.871-.019-1.531-.88-1.689Z"/>
  <path fill="#003021" d="M137.417 61.548c1.264-1.456 1.956-3.284 1.956-5.395a6.46 6.46 0 0 0-.607-2.801 84.65 84.65 0 0 1 8.127-1.219l-1.82 16.328h14.057l7.386-3.554-1.293-11.595c.903.179 1.432.3 1.432.3l8.506-5.768-.991-13.402h-31.457l-4.302 7.502-.27 3.65-.719-11.154h-13.843c-8.233 0-13.968 2.621-13.968 8.722l-.016 6.371c0 1.261.283 2.325.767 3.226-.174-.1-.35-.196-.524-.297l-.046 5.168 1.182 10.831s7.114.399 13.698.399c4.116 0 7.317-1.224 9.14-3.335l3.605-3.977Zm-1.433-11.25-.002-.033.018.01-.002-.034.018.01-.002-.034.018.01-.002-.034.018.01-.002-.034.018.01-.002-.034c.005.003.013.008.019.01l-.003-.034c.005.003.013.008.019.01l-.003-.034c.005.003.013.008.019.01l-.003-.034c.005.002.013.008.019.01l-.003-.034c.005.002.013.008.019.01l-.003-.034c.005.002.013.008.019.01l-.003-.034c.005.002.013.008.019.01l-.003-.034c.005.002.013.008.019.01l-.003-.034c.005.002.013.008.019.01l-.003-.035c.005.003.013.009.019.011l-.003-.035.019.011-.003-.035.019.011-.003-.035.019.011-.003-.035.019.011-.003-.035.019.011-.003-.035.019.01-.003-.034.019.01-.003-.034.019.01-.003-.034.019.01-.003-.034.019.01-.002-.034.018.01-.002-.034.018.01-.002-.034.018.01-.002-.034.018.01-.002-.034.018.01-.002-.034.018.01-.002-.034.018.01-.002-.034.018.01-.002-.034.018.01-.002-.035.019.011-.003-.035.019.011-.003-.035.019.011-.003-.035.019.011-.003-.035.019.011-.003-.035c.005.003.013.008.019.01l-.003-.034c.005.003.013.008.019.01l-.003-.034c.005.003.013.008.019.01l-.003-.034c.005.003.013.008.019.01l-.003-.034c.005.003.013.008.019.01l-.003-.034.019.01-.003-.034.019.01-.003-.034.019.01-.003-.034.019.01-.003-.034.019.01-.003-.034c.006.002.014.008.019.01l-.003-.034c.006.002.014.008.019.01l-.003-.034c.006.002.014.008.019.01l-.003-.034c.006.002.014.008.019.01l-.003-.035.019.011-.003-.034c.006.002.014.008.019.01l-.002-.035.018.011-.002-.035.018.011-.002-.035.018.011-.002-.035.018.011-.002-.035.018.01-.002-.034.018.01-.002-.034.018.01-.002-.034.018.01-.002-.034c.005.003.013.008.019.01l-.003-.034c.005.003.013.008.019.01l-.003-.034c.005.003.013.008.019.01l-.003-.034c.005.003.013.008.019.01l-.003-.034c.005.002.013.008.019.01l-.003-.034c.005.002.013.008.019.01l-.003-.034c.005.002.013.008.019.01l-.003-.034c.005.002.013.008.019.01l-.003-.034c.005.002.013.008.019.01l-.003-.034c.005.002.013.008.019.01l-.003-.034.019.01-.003-.035.019.011-.003-.035.019.011-.003-.035.019.011-.003-.035.019.011-.003-.035.019.01-.003-.034.019.01-.003-.034.019.01-.003-.034.019.01-.003-.034.019.01-.003-.034.019.01-.002-.034.018.01-.002-.034.018.01-.002-.034.018.01-.002-.034.018.01-.002-.034.018.01-.002-.034.018.01-.002-.034.018.01-.002-.034.018.01-.002-.035.018.011-.002-.035.019.011-.003-.035c.005.003.013.009.019.011l-.003-.035.019.011-.003-.035.019.011-.003-.035.019.011-.003-.035c.005.003.013.008.019.01l-.003-.034c.005.003.013.008.019.01l-.003-.034c.005.003.013.008.019.01l-.003-.034c.005.003.013.008.019.01l-.003-.034.019.01-.003-.034.019.01-.003-.034.019.01-.003-.034c.006.002.014.008.019.01l-.003-.034c.006.002.014.008.019.01l-.003-.034c.006.002.014.008.019.01l-.003-.034c.006.002.014.008.019.01l-.003-.034c.006.002.014.008.019.01l-.003-.034c.006.002.014.008.019.01l-.003-.034c.006.002.014.008.019.01l-.003-.035.019.011-.002-.035.018.011-.002-.035.018.011-.002-.035.018.011-.002-.035.018.011-.002-.035.018.01-.002-.034.018.01-.002-.034.018.01-.002-.034.018.01-.002-.034.018.01-.002-.034c.005.003.013.008.019.01l-.003-.034c.005.003.013.008.019.01l-.003-.034c.005.003.013.008.019.01l-.003-.034c.005.002.013.008.019.01l-.003-.034c.005.002.013.008.019.01l-.003-.034c.005.002.013.008.019.01l-.003-.034c.005.002.013.008.019.01l-.003-.034c.005.002.013.008.019.01l-.003-.034.011.005-.348 4.714c-.534-.657-1.109-1.136-1.745-1.56ZM82.36 68.445c0 .006 0 .011-.002.017h23.201l1.329-8.573h-.006l-.382-4.832-2.653.251.438-3.65-.203-1.58 2.963.145-.363-6.27-.671-9.513h-27.69c.948 5.882 1.231 15.267.68 23.64a5.67 5.67 0 0 0-.558-.834l-2.745-3.103c2.002-1.069 3.264-3.153 3.264-5.51 0-1.184-.222-2.43-.92-3.52l-4.658-6.996c-1.31-2.077-4.118-3.675-9.762-3.675H43.86c1.28 7.015 1.708 23.055-.032 30.465l8.511 3.541-.002.016h16.966c4.236 0 7.627-.935 9.306-3.316h.005l3.747 3.297Z"/>
  <path fill="#68B845" d="M63.32 64.907c7.015 0 12.012-2.226 12.012-8.447 0-3.904-2.744-6.785-7.196-7.197 3.72-.489 6.282-3.538 6.282-7.135 0-3.6-1.769-7.685-10.796-7.685H43.86c1.28 7.015 1.708 23.054-.032 30.465H63.32Zm-6.283-22.976h3.26c1.28 0 2.264.555 2.264 1.651 0 1.098-.647 1.651-2.172 1.651h-3.352v-3.302Zm0 11.985h3.712c1.425 0 2.52.639 2.52 1.905 0 1.264-.721 1.906-2.418 1.906h-3.814v-3.811ZM104.974 64.907l1.526-9.85-13.48 1.28v-3.415l9.514.793.975-8.11-10.491.588v-2.908l13.663.67-.67-9.513H78.32c1.218 7.563 1.341 20.92 0 30.465h26.654ZM125.407 55.239c0 .93-.839 1.341-2.21 1.341-4.255 0-9.148-1.646-13.357-4.118l1.358 12.442s8.172.457 15.735.457c7.562 0 12.442-3.6 12.442-9.209 0-9.027-15.858-8.43-15.858-11.435 0-.884.642-1.312 2.103-1.312 4.362 0 10.094 1.77 12.595 3.354l-.793-12.32h-13.843c-8.234 0-13.969 2.622-13.969 8.723 0 10.126 15.797 9.089 15.797 12.077ZM150.367 64.907h16.146L164.42 46.15c5.808.566 10.738 1.697 10.738 1.697l-.991-13.402h-31.454l-.992 13.402s4.931-1.128 10.738-1.697l-2.092 18.757Z"/>
  <path fill="#003021" d="M73.1 132.812c-.449-2.491-2.48-4.596-6.125-4.596-6.13 0-15.507 4.299-21.683 8.784l-2.288 15.462.008-.005 1.093 5.518s12.624-8.875 17.2-8.875c.17 0 .325.013.475.032-2.001 5.396-7.555 13.565-7.555 21.141 0 .396.035.783.1 1.163l1.098 5.486c.44 2.6 2.405 4.655 5.392 4.655 4.85 0 9.167-6.854 12.152-13.014l.865 4.329c.458 2.595 1.866 4.476 5.038 4.476 5.272 0 9.407-8.388 13.319-18.34-.093.826-.15 1.649-.15 2.461 0 1.197.07 2.274.249 3.218.003.008.003.016.005.024l1.093 5.465c.527 2.816 2.013 4.428 5.49 4.428 2.88 0 5.713-3.44 7.912-7.258l.422 2.116c.334 1.769 1.323 2.945 3.311 2.945 2.635 0 5.308-3.543 7.438-7.277l.604 3.02c.331 1.855 1.354 3.036 3.182 3.036 2.112 0 4.658-2.002 7.202-4.96l.97 4.898 12.138-2.255c-.232-4.738.778-9.34 2.339-13.218a14.512 14.512 0 0 0 .286 3.028c.002.008.002.016.005.024l1.093 5.465c.898 4.327 3.979 7.373 9.799 7.373 4.485 0 9.242-1.691 11.847-3.843l3.707-12.945c-.006.003-.008.006-.014.008l-1.087-5.518c-5.81 3.431-10.385 5.398-15.324 5.398a5.578 5.578 0 0 1-1.91-.318c4.965-2.057 10.652-6.862 10.652-11.828 0-.601-.062-1.17-.185-1.699l-1.098-5.487c-.521-2.295-2.186-3.813-4.944-3.813-1.972 0-4.249.999-6.451 2.675.625-1.646 1.173-3.044 1.561-3.934l-1.101-5.51-8.691 1.464c-2.857 7.015-9.567 24.845-13.768 26.732 1.895-6.499 6.825-17.622 9.701-24.287l-.016.003-1.099-5.486.011-.027-9.377 1.831c-2.838 10.208-8.734 28.217-12.935 30.831 1.866-6.061 6.136-14.784 6.136-14.784l-1.101-5.51s-5.366.991-7.806 1.464c-.192 1.857-.794 4.701-1.36 7.135l-.265-1.328c-.462-2.269-1.678-4.222-4.291-4.222-2.868 0-6.294 2.873-9.076 7.026 2.435-6.259 4.941-11.957 7.739-15.423l-1.101-5.51-14.364 3.02c-1.525 9.954-5.24 22.367-7.822 28.011 1.13-4.318 2.502-9.374 2.855-13.017l-.008.003-1.096-5.513-7.608 1.585c-.562 2.506-1.96 6.197-3.597 9.89 1.165-3.29 2.001-6.526 2.001-9.228 0-.371-.035-.74-.101-1.101l-1.09-5.494Zm32.86 19.372c-.938 3.343-2.726 6.863-4.02 7.579.81-3.378 2.523-6.735 4.02-7.579Z"/>
  <path fill="#68B845" d="M103.937 124.648c-9.242 11.435-15.278 47.207-26.166 47.207-5.636 0-5.705-5.946-4.754-11.272-2.96 6.625-7.784 15.481-13.297 15.481-3.416 0-5.49-2.683-5.49-5.793 0-9.242 8.266-19.364 8.266-24.26 0-1.465-.596-2.424-2.287-2.424-4.576 0-17.2 8.875-17.2 8.875L45.297 137c6.176-4.485 15.553-8.784 21.683-8.784 4.164 0 6.222 2.744 6.222 5.673 0 8.966-9.172 23.787-9.172 27.034 0 .596.23.807.572.807 1.761 0 9.743-16.043 11.299-22.993l7.608-1.585c-.62 6.395-4.385 17.156-4.452 20.615-.014.713.24.959.596.959 1.921 0 7.883-17.734 9.925-31.061l14.359-3.017Zm50.774 30.008c4.942 0 9.514-1.967 15.324-5.398l-3.707 12.945c-2.608 2.151-7.365 3.843-11.846 3.843-10.34 0-12.031-9.608-8.218-18.923 3.506-.428 7.044-3.341 7.044-6.604 0-.441-.275-.991-1.007-.991-4.086 0-11.954 11.467-11.344 23.848l-12.138 2.255c2.4-5.585 4.548-10.764 6.582-16.274-4.22 7.867-10.409 16.336-14.757 16.336-3.076 0-3.875-3.351-2.926-7.619-2.242 4.238-5.294 8.84-8.295 8.84-2.886 0-3.667-2.475-3.399-5.657-2.245 4.048-5.222 7.851-8.25 7.851-4.636 0-5.732-2.867-5.732-7.624 0-10.537 8.37-22.934 14.332-22.934 3.209 0 4.313 2.942 4.497 5.804.586-2.488 1.222-5.468 1.419-7.392 2.44-.473 7.806-1.464 7.806-1.464s-6.991 14.273-6.991 18.992c0 1.008.342 1.625.984 1.625 4.209 0 10.842-20.128 13.907-31.152l9.377-1.83c-3.613 8.37-10.476 23.786-10.476 28.223 0 1.098.367 1.737 1.19 1.737 4.118 0 11.435-19.487 14.454-26.898l8.691-1.464c-1.157 2.661-3.757 9.834-5.513 14.754 3.322-4.682 7.921-7.985 11.507-7.985 3.386 0 5.123 2.287 5.123 5.489 0 5.307-6.496 10.43-11.665 12.213-1.141 2.846.551 5.454 4.027 5.454Zm-48.121-6.312c0-1.374-.473-1.876-1.053-1.876-2.127 0-5.168 6.702-5.168 11.36 0 1.28.457 2.074 1.128 2.074 1.769 0 5.093-7.443 5.093-11.558Z"/>
  <path fill="#003021" d="M94.266 117.195a147.055 147.055 0 0 1 16.323-.901h.077l1.347-12.231h-.002l.163-5.126-1.337.323.008-9.348.433.06.067-6.863h.003l-.772-10.246H92.227c1.465 11.985 1.465 27.849 0 40.823l2.04 3.509Zm9.434-16.2-.078.019v-.027l.078.008ZM114.044 80.853c1.141 10.994.978 20.754 0 35.502 0 0 .003.003.005.003 3.199.091 6.355.283 9.455.572l-.003-.016 1.58-3.522c-.398-2.416-.671-5.275-.839-8.212 1.71 4.275 3.094 8.853 3.84 12.25 2.923.369 5.791.823 8.597 1.36l3.543-3.268a84.613 84.613 0 0 1-.612 3.861c.003 0 .006.003.008.003 4.164.893 8.167 2.002 12.015 3.209 1.727.543 3.539.73 5.187-.133l5.663-2.844a6.476 6.476 0 0 0 1.545-1.13l-.874 7.814c1.953 3.095 6.082 6.136 11.403 6.136.476 0 .954-.046 1.43-.131l8.011-1.633c5.051-.887 9.867-5.978 9.867-13.525 0-4.928-1.278-8.963-2.983-12.362l4.966-2.52 7.717-16.956c-2.044-2.44-4.943-4.605-7.597-6.13l-3.851 3.027 2.448-9.34h-7.929c-4.735 0-8.367.933-10.815 3.568L168.702 84c-.091.096-.179.2-.265.302-1.462-7.245-4.989-11.435-11.715-11.435h-12.077l-3.725 7.988c.858 9.709.828 23.118-.615 34.067-1.058-15.152-.756-28.21 1.505-42.055h-11.529l-2.314 8.357c.051.355.265.347.313.716l-2.571-9.073h-11.254l-.411 7.985Zm55.104 26.211c-.003-.003-.003-.008-.005-.011l.005.008v.003Zm-.027.018c-.005-.018-.013-.034-.021-.053l-.008.072c-.005-.019-.013-.035-.021-.053l-.008.072c-.006-.019-.014-.035-.022-.054l-.008.072c-.005-.018-.013-.034-.021-.053l-.008.072c-.006-.019-.014-.035-.022-.053l-.008.072c-.005-.019-.013-.035-.021-.054l-.008.073c-.005-.019-.013-.035-.021-.054l-.008.072c-.006-.018-.014-.034-.022-.053l-.008.072c-.005-.019-.013-.035-.021-.053l-.008.072c-.006-.019-.014-.035-.022-.054l-.008.072c-.005-.018-.013-.034-.021-.053l-.008.072c-.005-.019-.013-.035-.021-.053l-.008.072c-.006-.019-.014-.035-.022-.054l-.008.073c-.005-.019-.013-.035-.021-.054l-.008.072c-.006-.018-.014-.034-.022-.053l-.008.072c-.005-.019-.013-.035-.021-.053l-.008.072c-.005-.019-.013-.035-.021-.054l-.008.072c-.006-.018-.014-.034-.022-.053l-.008.072c-.005-.019-.013-.035-.021-.053l-.008.072c-.006-.019-.014-.035-.022-.054l-.008.073c-.005-.019-.013-.035-.021-.054l-.008.072c-.005-.018-.013-.035-.021-.053l-.008.072c-.006-.019-.014-.035-.022-.054l-.008.073c-.005-.019-.013-.035-.021-.054l-.008.072c-.005-.018-.014-.034-.022-.053l-.008.072c-.005-.019-.013-.035-.021-.053l-.008.072c-.005-.019-.013-.035-.021-.054l-.008.072c-.006-.018-.014-.034-.022-.053l-.008.072-.008-.019c.078-.473.15-.964.217-1.472.192.31.39.615.588.911l.026.056ZM89.116 72.866H76.12c2.109 9.58 2.502 21.125 1.962 32.119l-3.204-4.011c2.303-2.76 3.086-6.187 3.086-8.718 0-2.61-.572-4.775-1.566-6.493l-4.211-7.35c-2.122-3.69-5.978-5.547-10.428-5.547h-14.82c.205 1.552.395 3.175.574 4.853l-4.509-4.853h-25.15c5.394 18.49 10.468 43.557 12.564 64.382l8.816.92c3.14-2.641 6.691-5.097 10.604-7.339-1.719-3.997-3.215-9.607-4.42-15.494 1.373.024 2.645.168 3.693.337a292.5 292.5 0 0 1-.262 9.914l6.793 2.2c3.052-1.462 6.697-2.959 10.072-4.172-.575-2.21-1.09-4.789-1.502-7.392a6.981 6.981 0 0 0 1.609 1.409l4.91 3.059c1.632 1.021 3.735 1.075 6.429-.363l.28-4.038 3.47 3.063a135.579 135.579 0 0 1 10.333-1.786c-1.694-12.693-1.544-24.962.246-36.71l-2.373-7.99Zm-26.408 16.02c-.222.244-.447.482-.68.714.153-.3.378-.548.68-.713ZM43.737 95.83a56.07 56.07 0 0 1-1.176.484c-.038-.382-.072-.759-.105-1.125 1.815 0 4.223.28 6.334.633a463.3 463.3 0 0 1 .144 3.889l-5.197-3.88Z"/>
  <path fill="#68B845" d="M92.237 113.688c5.94-.662 12.069-1.01 18.335-1.01h.086l1.512-13.738-9.425 2.287v-5.743l8.097.896V85.768l-8.097 1.052v-4.895l8.6 1.189-.773-10.246H92.224c1.464 11.986 1.464 27.849 0 40.823h.013v-.003ZM130.281 72.865c.93 6.444 1.133 14.958 1.176 20.286l-5.751-20.285h-11.254c1.28 12.351 1.099 23.31 0 39.879l.006.003c3.594.101 7.138.318 10.62.641-.829-5.016-1.115-11.945-1.053-17.522 2.771 5.804 5.147 12.95 6.245 17.95 3.284.414 6.903.999 10.056 1.601h.008c-1.101-15.369-.815-28.557 1.473-42.553h-11.526ZM184.26 87.825c2.103 0 4.409 1.601 5.372 3.889l4.935-18.846h-7.929c-9.454 0-14.516 3.72-14.516 17.26 0 11.741 10.128 17.2 10.128 21.898 0 1.28-.793 2.119-1.95 2.119-2.975 0-6.802-4.04-8.6-8.829l-2.076 18.602c2.196 3.477 6.83 6.892 12.808 6.892 5.572 0 11.435-5.336 11.435-13.661 0-14.912-11.665-21.683-11.665-27.263 0-1.283.778-2.06 2.058-2.06ZM77.231 116.11a151.902 151.902 0 0 1 11.61-2.005c-1.904-14.26-1.735-28.04.274-41.24H76.12c2.84 12.9 2.565 29.367 1.1 43.245h.011ZM44.653 112.663l-.914-16.834c-2.902 1.235-6.507 2.427-8.549 3.071a190.167 190.167 0 0 1-1.149-9.933c3.11 0 7.777.732 10.43 1.373l-1.464-17.474H17.855c5.393 18.49 10.467 43.557 12.563 64.382 3.524-2.966 7.517-5.724 11.91-8.244-1.932-4.492-3.61-10.791-4.965-17.405 4.027.067 7.29 1.064 7.29 1.064ZM66.294 98.817c5.876-3.079 7.632-9.116 7.632-13.14 0-8.51-5.398-12.809-12.167-12.809H46.938c2.025 15.23 2.608 37.146 1.91 52.718 3.43-1.644 7.523-3.325 11.315-4.688-1.595-6.135-2.795-14.812-2.795-20.128.877 0 1.705-.045 2.499-.125.598 9.794 3.495 21.715 13.153 16.56l1.181-17.076c-3.105 2.589-6.344 1.269-7.907-1.312Zm-10.567-14.73c0-1.28.596-2.44 2.103-2.44 1.51 0 2.256.793 2.608 2.47.35-1.68 1.099-2.47 2.609-2.47s2.103 1.16 2.103 2.44c0 2.53-2.53 5.061-4.712 7.015-2.18-1.954-4.71-4.485-4.71-7.015ZM156.721 72.865h-12.076c1.098 12.443.9 30.294-1.47 43.279.002.003.005.003.008.003 4.676 1.005 9.174 2.248 13.495 3.605 5.396 1.692 11.51.299 12.486-20.906.732-15.916-2.013-25.98-12.443-25.98Zm3.202 23.148c-.642 9.423-1.826 10.34-5.487 9.789l.73-20.128c3.019 0 5.398.914 4.757 10.34Z"/>
  <path fill="#68B845" d="m195.97 79.178-4.711 19.075 4.588 4.011 7.718-16.956c-2.042-2.44-4.941-4.604-7.595-6.13ZM29.78 42.823c-4.522 1.381-6.623 4.815-5.068 9.906 1.556 5.089 5.861 9.196 11.585 11.411 3.506-5.037 4.778-10.85 3.223-15.938-1.558-5.09-5.22-6.76-9.74-5.38Zm3.249 10.63a3.346 3.346 0 1 1-1.956-6.398 3.346 3.346 0 0 1 1.956 6.398Z"/>
  <path fill="#fff" d="M32.05 53.6a3.346 3.346 0 1 0 0-6.691 3.346 3.346 0 0 0 0 6.691Z"/>
  <path fill="#68B845" d="M172.542 146.513h30.81c1.771-4.981-1.147-6.758-3.875-4.599 1.109-5.267-5.463-6.713-8.031-1.988-.78-4.377-5.515-3.795-7.894 2.178-1.237-4.663-8.765-2.157-11.01 4.409ZM178.151 161.852h18.608c1.055-5.146-3.357-5.849-5.722-3.038.863-4.284-4.636-6.617-7.45-.567-1.214-2.501-4.64-.518-5.436 3.605Z"/>
  <path fill="#003021" d="M188.21 127.229c-4.61-1.05-8.143.885-9.324 6.072-1.181 5.19.508 10.893 4.372 15.663 5.548-2.625 9.543-7.034 10.724-12.224 1.184-5.189-1.162-8.46-5.772-9.511Zm-2.469 10.837a3.343 3.343 0 1 1 1.485-6.521 3.343 3.343 0 0 1 2.518 4.003 3.342 3.342 0 0 1-4.003 2.518Z"/>
  <path fill="#fff" d="M186.484 138.151a3.346 3.346 0 1 0 0-6.691 3.346 3.346 0 0 0 0 6.691Z"/>
  <path fill="#003021" d="m181.749 49.124 4.93-9.995c.15-.304.425-.531.756-.62l2.868-.774-8.325 11.846-.229-.457ZM187.71 53.913l13.175-8.463-1.031 3.255a1.152 1.152 0 0 1-.634.705l-11.325 5.006-.185-.503ZM189.48 60.928l-.091.366 11.218 1.529c.34.045.684-.062.936-.294l1.889-1.737-13.952.136ZM25.58 142.288l-.031.577-10.783 6.911.254-2.357a.985.985 0 0 1 .572-.791l9.989-4.34ZM32.73 144.44l.214.336-10.003 14.639-.8-2.447a.983.983 0 0 1 .204-.963L32.73 144.44ZM37.761 148.496l-4.209 14.273 2.098-.668a.988.988 0 0 0 .676-.796l1.863-12.809h-.428Z"/>
  <path fill="#68B845" d="M19.34 103.181a.794.794 0 1 0 0-1.588.794.794 0 0 0 0 1.588ZM10.68 91.043a.794.794 0 1 0 0-1.587.794.794 0 0 0 0 1.587ZM14.707 79.699a.794.794 0 1 0 0-1.588.794.794 0 0 0 0 1.588ZM22.94 41.396a.794.794 0 1 0 0-1.588.794.794 0 0 0 0 1.588ZM51.332 12.73a.794.794 0 1 0 0-1.588.794.794 0 0 0 0 1.587ZM90.762 31.393a.794.794 0 1 0 0-1.587.794.794 0 0 0 0 1.587ZM113.331 28.648a.793.793 0 1 0 0-1.586.793.793 0 0 0 0 1.586ZM138.945 67.438a.794.794 0 1 0 0-1.588.794.794 0 0 0 0 1.588ZM166.973 71.524a.793.793 0 1 0 0-1.587.793.793 0 0 0 0 1.587ZM172.096 28.16a.794.794 0 1 0 0-1.589.794.794 0 0 0 0 1.589ZM169.442 17.668a.794.794 0 1 0 0-1.589.794.794 0 0 0 0 1.589ZM193.99 29.653a.794.794 0 1 0 0-1.587.794.794 0 0 0 0 1.587ZM202.652 55.362a.793.793 0 1 0 0-1.587.793.793 0 0 0 0 1.587ZM208.37 81.345a.794.794 0 1 0 0-1.587.794.794 0 0 0 0 1.587ZM198.841 107.694a.793.793 0 1 0 0-1.586.793.793 0 0 0 0 1.586ZM207.502 118.031a.794.794 0 1 0 0-1.588.794.794 0 0 0 0 1.588ZM169.87 140.172a.795.795 0 1 0-.001-1.59.795.795 0 0 0 .001 1.59ZM124.066 122.392a.793.793 0 1 0 0-1.586.793.793 0 0 0 0 1.586ZM81.925 133.202a.794.794 0 1 0 0-1.587.794.794 0 0 0 0 1.587ZM198.659 153.141a.794.794 0 1 0 0-1.588.794.794 0 0 0 0 1.588ZM130.685 177.294a.794.794 0 1 0-.002-1.588.794.794 0 0 0 .002 1.588ZM68.531 186.099a.794.794 0 1 0 0-1.587.794.794 0 0 0 0 1.587ZM38.157 173.747a.794.794 0 1 0 0-1.587.794.794 0 0 0 0 1.587ZM27.454 164.691a.794.794 0 1 0 0-1.588.794.794 0 0 0 0 1.588ZM38.713 143.582a.794.794 0 1 0-.001-1.588.794.794 0 0 0 0 1.588ZM149.773 180.701a.794.794 0 1 0 0-1.588.794.794 0 0 0 0 1.588Z"/>
  <path fill="#003021" d="m92.903 70.904-.783-1.78a116.005 116.005 0 0 1-5.644 2.32l.687 1.82c1.814-.687 3.693-1.46 5.74-2.36ZM103.571 65.861c1.689-.826 3.434-1.68 5.152-2.499l-.836-1.755c-1.726.823-3.477 1.68-5.168 2.51l-.38.183.855 1.746.377-.185ZM113.606 133.94c.906 0 1.769-.222 2.568-.663l-.935-1.705a3.346 3.346 0 0 1-1.633.422c-1.13 0-1.967-.47-2.293-1.288l-1.806.722c.628 1.574 2.162 2.512 4.099 2.512ZM84.696 74.153l-.633-1.838a71.123 71.123 0 0 1-5.815 1.74l.473 1.886a72.626 72.626 0 0 0 5.975-1.788ZM36.842 66.949a35.02 35.02 0 0 0 4.947 3.939l1.069-1.622a32.512 32.512 0 0 1-4.669-3.718l-1.347 1.4ZM43.414 136.962c1.852.51 3.907.818 6.28.943l.101-1.942c-2.231-.118-4.15-.404-5.866-.877l-.515 1.876ZM115.543 126.289l-.278-1.924c-2.776.4-4.85 1.787-5.686 3.805l1.795.746c.567-1.371 2.088-2.328 4.169-2.627ZM116.492 122.085c-1.51-1.224-3.536-2.092-6.026-2.59l-.38 1.909c2.178.432 3.921 1.17 5.182 2.194l1.224-1.513ZM179.998 59.153l1.16.15-.532 1.018c1.646.86 2.825 2.328 3.234 4.028l1.889-.455c-.5-2.082-1.86-3.89-3.763-5.037.038-.425.056-.86.056-1.299 0-1.649-.563-3.27-1.632-4.69l-1.553 1.17c.823 1.096 1.243 2.28 1.243 3.52-.003.542-.035 1.08-.102 1.595ZM173.56 67.299l.455-1.89c-1.059-.253-2.299-1.039-2.296-2.413 0-.237.072-.507.206-.785l-1.75-.847c-.265.547-.401 1.098-.401 1.633 0 2.343 1.9 3.848 3.786 4.302ZM178.395 50.859c-1.582-1.216-3.565-2.141-5.895-2.745l-.49 1.881c2.077.54 3.825 1.347 5.198 2.406l1.187-1.542ZM127.213 127.721c-.181-.142-.363-.275-.539-.406l-1.144 1.571c.353.257.716.54 1.085.847.206-.686.406-1.357.598-2.012ZM118.373 131.15a6.6 6.6 0 0 0 .818-4.845c1.566.187 2.918.598 4.265 1.293l.89-1.729c-1.93-.991-3.937-1.504-6.318-1.606l-.01.257-1.291.748c.444.762.665 1.579.665 2.429 0 .866-.235 1.708-.681 2.435l1.662 1.018ZM172.194 59.079l1.123 1.587c1.071-.759 2.429-1.176 3.827-1.176.446 0 .889.038 1.32.11l.326-1.916a9.912 9.912 0 0 0-1.646-.14c-1.796 0-3.555.546-4.95 1.535ZM107.628 121.062l.166-1.938c-1.951-.166-4.175-.147-6.321.067l.193 1.935c2.025-.203 4.131-.222 5.962-.064ZM94.47 68.069l.812 1.766c1.614-.74 3.335-1.558 5.58-2.648l-.85-1.748a302.619 302.619 0 0 1-5.543 2.63ZM168.403 155.883l.133 1.94a27.501 27.501 0 0 0 6.264-1.149l-.577-1.858a25.636 25.636 0 0 1-5.82 1.067ZM92.737 121.062l.596 1.849a41.566 41.566 0 0 1 5.834-1.449l-.326-1.916c-2.002.34-3.995.837-6.104 1.516ZM176.545 153.948l.786 1.777c2.098-.927 3.915-2.119 5.403-3.538l-1.341-1.406c-1.326 1.264-2.956 2.33-4.848 3.167ZM44.06 72.27a39.85 39.85 0 0 0 2.999 1.517c-.04-.31-.078-.62-.118-.922h2.932a38.357 38.357 0 0 1-4.859-2.29l-.954 1.694ZM181.257 62.13l-1.82-.683c-.708 1.884-1.994 3.324-3.437 3.853l.671 1.825c1.996-.732 3.669-2.552 4.586-4.994ZM60.739 134.92l.478 1.884c1.916-.486 3.867-1.122 5.962-1.94l-.708-1.812c-2.02.791-3.894 1.401-5.733 1.868ZM68.833 132.074l.775 1.783a117.879 117.879 0 0 0 5.614-2.651l-.87-1.74c-2.15 1.077-3.903 1.906-5.52 2.608ZM52.331 136.027l.008 1.943a35.441 35.441 0 0 0 6.288-.599l-.352-1.911a33.574 33.574 0 0 1-5.944.567ZM69.782 75.525l.002.02a10.41 10.41 0 0 1 1.668 1.757 56.651 56.651 0 0 0 4.7-.773l-.392-1.902a54.91 54.91 0 0 1-5.978.898ZM77.807 127.713l-1.147.585.885 1.732 1.15-.588a323.212 323.212 0 0 1 4.331-2.191l-.86-1.743c-1.465.722-2.935 1.476-4.36 2.205ZM84.514 124.375l.826 1.761a76.325 76.325 0 0 1 5.588-2.383l-.684-1.82c-1.772.665-3.645 1.464-5.73 2.442ZM172.232 85.808l-1.024-1.652c2.007-1.245 3.584-2.338 4.963-3.437l1.213 1.521c-1.443 1.147-3.078 2.282-5.152 3.568ZM179.402 80.49l-1.333-1.414c1.552-1.464 2.757-2.953 3.685-4.548l1.681.978c-1.024 1.758-2.341 3.388-4.033 4.984ZM184.632 73.047l-1.807-.719c.695-1.747 1.091-3.656 1.179-5.676l1.943.083c-.097 2.24-.54 4.364-1.315 6.312Z"/>
</svg>
